<svg class="img-fluid" id="outputsvg" xmlns="http://www.w3.org/2000/svg" style="transform: none; transform-origin: 50% 50%; cursor: move;" width="600" height="503" viewBox="0 0 6000 5030"><g id="l28ntoX7qMYRF8goD3RR1YU" fill="rgb(121,20,28)" style="transform: none;"><g><path id="p17SLwhW9c" d="M4000 1694 c-30 -8 -56 -19 -58 -24 -2 -6 -10 -10 -18 -10 -8 0 -14 -4 -14 -10 0 -5 -6 -10 -13 -10 -19 0 -57 -43 -57 -63 0 -9 -7 -17 -15 -17 -9 0 -15 -9 -15 -25 0 -15 -6 -25 -15 -25 -16 0 -55 -113 -55 -159 0 -41 11 -71 26 -71 8 0 14 -6 14 -14 0 -10 15 -14 60 -14 53 0 60 2 60 19 0 16 -3 18 -19 9 -46 -24 -112 4 -110 48 0 13 2 14 6 2 18 -49 75 -66 106 -32 8 9 30 49 47 87 43 95 94 146 147 145 10 -1 1 -7 -20 -14 -53 -19 -73 -40 -107 -113 -34 -71 -36 -83 -16 -83 15 0 26 21 26 51 0 10 4 19 9 19 5 0 13 10 17 22 11 36 82 87 122 88 26 0 30 26 5 33 -10 3 0 5 22 5 22 0 32 -2 23 -5 -33 -8 -19 -31 22 -38 22 -4 40 -11 40 -16 0 -5 12 -9 26 -9 34 0 22 17 -30 42 -34 16 -36 18 -11 13 58 -12 97 -56 161 -180 38 -72 71 -123 85 -131 13 -7 19 -13 12 -14 -6 0 -25 12 -42 26 l-31 26 0 -26 c0 -31 25 -46 79 -46 31 0 44 6 60 26 22 28 28 69 11 79 -5 3 -10 -1 -10 -9 0 -8 -12 -28 -26 -43 l-25 -28 22 32 c17 25 21 40 16 74 -8 60 -69 178 -123 238 -52 58 -161 117 -240 130 -27 5 -41 9 -31 10 10 0 15 6 12 11 -9 14 -70 11 -135 -6z m31 -30 c-106 -28 -199 -124 -241 -249 -13 -39 -19 -48 -15 -25 21 135 172 288 285 289 14 0 1 -7 -29 -15z"></path><path id="pZSjvj3so" d="M4156 1702 c-3 -5 19 -16 48 -25 64 -20 66 -21 66 -4 0 22 -102 48 -114 29z"></path><path id="pv8KWx8hl" d="M4280 1655 c0 -3 18 -16 39 -30 85 -53 168 -170 202 -282 14 -49 34 -47 26 3 -7 42 -57 154 -68 154 -5 0 -9 7 -9 15 0 8 -4 15 -9 15 -5 0 -11 9 -14 21 -3 11 -14 23 -25 26 -11 3 -22 13 -25 24 -3 10 -13 22 -24 26 -10 4 -24 13 -31 20 -13 12 -62 19 -62 8z"></path><path id="p1aAPExHf" d="M4280 1444 c0 -27 63 -144 78 -144 18 0 15 15 -17 78 -34 66 -61 96 -61 66z"></path><path id="p1oAW3ebW" d="M3570 1102 c0 -4 -10 -12 -22 -17 -13 -6 -24 -20 -26 -32 -2 -13 -7 -23 -12 -23 -13 0 -23 -76 -15 -120 5 -31 11 -40 26 -40 17 0 18 3 9 21 -6 11 -9 28 -7 37 4 13 5 12 6 -4 2 -43 96 -104 160 -104 39 0 91 58 91 101 0 111 -129 198 -203 137 -15 -13 -35 -41 -43 -63 l-15 -40 6 35 c6 39 48 88 82 96 13 4 20 10 17 15 -6 11 -54 12 -54 1z"></path><path id="pXswUJjpn" d="M3646 1101 c-4 -5 8 -12 25 -16 41 -9 95 -66 110 -115 8 -26 16 -37 22 -31 12 12 0 81 -13 81 -6 0 -10 7 -10 15 0 8 -9 15 -20 15 -13 0 -20 7 -20 20 0 30 -79 56 -94 31z"></path><path id="pyi4gyHbI" d="M4635 1070 c-3 -5 -3 -10 2 -10 4 0 18 -3 31 -6 16 -5 22 -2 22 10 0 18 -45 23 -55 6z"></path><path id="pRMEzw0XV" d="M4523 1033 c-4 -10 -11 -21 -17 -25 -13 -9 -18 -132 -5 -166 14 -37 65 -82 93 -82 39 0 37 12 -4 32 -40 20 -80 82 -80 126 0 33 19 75 48 105 l26 27 -27 0 c-17 0 -30 -7 -34 -17z"></path><path id="p14OmAe6TH" d="M4585 1030 c-34 -22 -65 -74 -65 -108 0 -64 58 -132 112 -132 57 0 124 53 134 106 8 44 -27 105 -76 133 -47 26 -67 26 -105 1z"></path><path id="pVGFOdbDP" d="M4739 1002 c39 -48 47 -88 27 -135 -14 -35 -14 -37 4 -37 12 0 20 9 23 28 9 48 7 112 -3 112 -6 0 -10 9 -10 20 0 11 -4 20 -10 20 -5 0 -10 7 -10 15 0 9 -9 15 -25 15 l-26 0 30 -38z"></path><path id="pGVBoAQPu" d="M3778 879 c-16 -37 -16 -39 2 -39 19 0 30 19 30 50 0 34 -15 29 -32 -11z"></path><path id="p17hCh6dLe" d="M3550 841 c0 -31 109 -67 125 -41 3 6 0 10 -7 10 -7 0 -37 11 -65 25 -49 22 -53 23 -53 6z"></path><path id="p12m0xBbFE" d="M3717 816 c-31 -14 -26 -26 10 -26 16 0 23 6 23 20 0 11 -1 20 -2 19 -2 0 -15 -6 -31 -13z"></path><path id="p4AsnzYTF" d="M4700 799 c-19 -10 -41 -19 -48 -19 -7 0 -10 -4 -7 -10 8 -13 55 -13 55 0 0 6 9 10 20 10 13 0 20 7 20 20 0 11 -1 20 -2 19 -2 0 -19 -9 -38 -20z"></path></g></g><g id="l3S8C90vRRYwndFQVENnlj2" fill="rgb(5,94,100)" style="transform: none;"><g><path id="pcU0Py1ny" d="M1318 3953 c-10 -2 -18 -11 -18 -19 0 -17 2 -17 51 -3 59 18 28 38 -33 22z"></path><path id="p1ERaZ00Hi" d="M1466 3952 c-3 -6 2 -13 11 -15 10 -3 -11 -5 -47 -6 -131 -3 -222 -73 -267 -206 -13 -40 -13 -40 -8 -5 3 19 17 56 30 82 25 47 25 48 5 48 -15 0 -22 -8 -26 -30 -4 -16 -10 -30 -15 -30 -11 0 -42 -146 -36 -170 3 -11 0 -20 -5 -20 -7 0 -9 -20 -6 -52 7 -66 31 -88 99 -88 68 0 81 17 112 143 28 114 47 143 97 154 33 6 40 28 13 37 -10 3 12 4 49 2 95 -5 132 -30 170 -115 67 -151 79 -163 124 -120 32 30 31 78 -1 148 -49 104 -117 168 -218 202 -29 10 -43 18 -32 19 34 0 122 -47 170 -91 51 -47 69 -75 102 -159 17 -43 23 -51 28 -37 8 20 -11 97 -24 97 -5 0 -11 14 -14 30 -4 18 -13 30 -22 30 -8 0 -15 8 -15 18 0 20 -39 62 -58 62 -7 0 -12 5 -12 11 0 28 -189 85 -204 61z m-93 -178 c-45 -22 -59 -48 -84 -154 -22 -97 -49 -140 -87 -140 -26 0 -72 38 -71 58 0 13 3 11 9 -5 10 -23 39 -43 64 -43 33 0 54 39 77 137 18 81 28 104 55 131 17 17 40 32 51 32 12 0 8 -6 -14 -16z m-236 -191 c-3 -10 -5 -2 -5 17 0 19 2 27 5 18 2 -10 2 -26 0 -35z"></path><path id="p3XSWcEMl" d="M1240 3900 c0 -17 3 -19 19 -10 32 16 34 30 7 30 -19 0 -26 -5 -26 -20z"></path><path id="pVaLxRYQA" d="M1480 3775 c0 -9 9 -15 24 -15 33 0 42 16 13 24 -33 9 -37 8 -37 -9z"></path><path id="prxLVEW2e" d="M1550 3750 c0 -13 7 -20 19 -20 11 0 21 -9 24 -22 12 -50 53 -138 65 -138 16 0 15 10 -8 74 -23 60 -51 100 -81 116 -16 9 -19 7 -19 -10z"></path><path id="pq4exKGRR" d="M1793 3579 c-10 -26 -9 -29 8 -29 13 0 19 7 19 24 0 36 -14 39 -27 5z"></path><path id="pH2wCH1uZ" d="M963 3373 c-13 -2 -23 -9 -23 -14 0 -5 -7 -9 -15 -9 -9 0 -19 -8 -22 -17 -4 -10 -11 -21 -16 -25 -14 -9 -19 -120 -7 -152 6 -16 17 -26 29 -26 13 0 21 -8 23 -22 2 -17 14 -27 46 -37 52 -16 132 -7 132 15 0 12 -9 14 -37 10 -34 -5 -35 -5 -9 3 37 13 66 39 82 76 8 19 13 23 14 13 0 -10 7 -18 15 -18 18 0 20 47 4 103 -7 26 -15 37 -29 37 -13 0 -20 7 -20 20 0 10 -9 24 -19 29 -22 12 -117 21 -148 14z m32 -30 c-58 -15 -101 -81 -91 -137 7 -38 61 -93 102 -106 21 -6 23 -9 9 -9 -32 -1 -90 44 -110 84 -12 26 -15 48 -10 73 8 44 64 102 97 101 20 -1 20 -2 3 -6z m102 -14 c35 -22 64 -66 62 -96 0 -10 -5 -4 -10 12 -11 40 -59 85 -101 95 -26 6 -28 8 -9 9 13 1 39 -8 58 -20z"></path><path id="poGfcOGBP" d="M1830 3360 c0 -5 -7 -10 -15 -10 -9 0 -19 -8 -22 -17 -4 -10 -11 -21 -16 -25 -12 -8 -19 -90 -12 -135 4 -24 11 -33 25 -33 18 0 18 2 4 37 -10 23 -13 49 -9 71 7 39 63 102 90 102 9 0 13 5 10 10 -3 6 -17 10 -31 10 -13 0 -24 -4 -24 -10z"></path><path id="piPtTe3oe" d="M1937 3362 c-3 -4 12 -15 34 -24 37 -16 39 -16 39 2 0 25 -60 44 -73 22z"></path><path id="pFSNMjRFU" d="M1836 3315 c-73 -67 -52 -157 49 -209 17 -9 24 -16 16 -16 -7 0 -29 9 -47 21 l-34 21 0 -21 c0 -12 6 -21 14 -21 8 0 16 -5 18 -11 5 -16 79 -22 126 -10 31 9 42 17 42 31 0 13 7 20 20 20 22 0 37 38 26 67 -6 14 -11 9 -26 -24 -19 -42 -62 -74 -97 -72 -10 0 -4 5 14 10 49 14 83 62 83 116 0 39 -5 50 -39 84 -35 35 -44 39 -88 39 -39 0 -56 -5 -77 -25z"></path><path id="pD7te9f3z" d="M2033 3283 c8 -16 17 -35 19 -43 5 -13 7 -12 13 3 12 28 -3 67 -25 67 -19 0 -19 -2 -7 -27z"></path></g></g><g id="l1zl5l78TakGRv5EUGd3wtO" fill="rgb(36,66,143)" style="transform: none;"><g><path id="pSetAXIE8" d="M3937 3839 c-88 -21 -176 -86 -223 -167 -23 -38 -28 -59 -28 -115 -1 -89 15 -105 106 -105 70 0 88 9 88 44 0 14 6 24 14 24 8 0 17 9 21 20 9 30 84 89 122 96 35 7 45 29 16 37 -10 3 0 5 22 5 22 0 32 -2 23 -5 -30 -8 -20 -30 17 -36 44 -7 157 -57 168 -74 4 -7 13 -13 18 -13 6 0 17 -6 25 -14 21 -22 118 -19 146 4 20 16 23 28 23 83 0 56 -3 68 -25 89 -54 53 -179 107 -292 128 -71 13 -123 6 -83 -10 14 -6 3 -8 -35 -8 -30 0 -47 2 -37 5 9 2 15 9 12 14 -7 11 -46 10 -98 -2z m253 -29 c20 -6 21 -8 5 -8 -11 0 -33 4 -50 8 -27 7 -27 8 -5 8 14 0 36 -4 50 -8z m-310 -36 c-58 -33 -96 -68 -131 -124 -16 -25 -29 -42 -29 -37 0 15 48 82 81 114 37 33 98 73 114 73 6 0 -10 -12 -35 -26z m476 -25 c75 -37 115 -73 113 -103 l-2 -21 -4 21 c-6 31 -40 59 -119 99 -38 19 -65 34 -60 35 5 0 37 -14 72 -31z m-351 -91 c-50 -18 -94 -57 -119 -107 -14 -26 -32 -53 -41 -61 -23 -19 51 103 78 128 28 26 77 52 97 51 8 0 2 -5 -15 -11z m199 -8 c30 -12 81 -39 113 -60 64 -44 86 -48 123 -24 l25 16 -24 -21 c-34 -31 -59 -26 -136 24 -38 25 -96 54 -129 65 -34 10 -53 19 -44 19 10 1 42 -8 72 -19z m-463 -156 c8 -4 29 -11 49 -15 l35 -7 -31 -1 c-36 -1 -84 32 -83 57 0 13 2 12 9 -4 5 -12 14 -26 21 -30z"></path><path id="p141iqjIHU" d="M4393 3333 c-49 -10 -94 -79 -79 -120 6 -14 11 -9 26 24 10 23 29 47 42 53 l23 11 -21 -18 c-30 -25 -44 -56 -45 -100 -1 -21 -3 -30 -6 -20 -6 24 -23 11 -23 -19 0 -39 37 -102 70 -119 66 -34 166 -7 212 57 19 27 23 46 23 106 0 41 -5 76 -11 80 -6 4 -13 14 -16 23 -14 37 -112 58 -195 42z m153 -48 c37 -28 59 -83 49 -123 -9 -38 -50 -89 -86 -108 -17 -8 -33 -13 -35 -11 -3 2 9 10 26 17 40 16 79 68 86 112 7 44 -22 96 -67 120 -18 10 -27 18 -20 18 8 0 29 -11 47 -25z m-123 -236 c23 -10 35 -19 27 -19 -39 0 -112 71 -110 107 1 4 10 -9 21 -30 14 -26 34 -45 62 -58z"></path><path id="pWAjnQrE3" d="M3660 3313 c-49 -18 -98 -119 -71 -146 8 -8 11 -7 11 3 0 7 9 33 20 56 24 49 76 80 118 69 65 -16 131 -100 132 -165 0 -43 -34 -86 -82 -103 -35 -12 -39 -16 -25 -22 31 -13 95 13 111 43 23 45 15 171 -12 192 -4 3 -12 14 -18 24 -23 43 -126 70 -184 49z"></path><path id="ptjmWouQh" d="M3681 3278 c-87 -46 -93 -197 -9 -233 18 -8 26 -14 17 -15 -28 0 -68 40 -80 81 -8 25 -16 36 -22 30 -15 -15 2 -81 28 -106 25 -26 85 -41 112 -30 17 7 16 8 -2 15 -17 7 -15 9 11 9 51 1 94 21 109 52 20 38 19 65 -6 116 -34 71 -107 108 -158 81z"></path></g></g><g id="l1hFxugZ9hEXd4M1fGdjEA5" fill="rgb(247,64,64)" style="transform: none;"><g><path id="p1Cwv6CzKH" d="M5050 2363 c-30 -1 -154 -7 -275 -13 -121 -7 -339 -22 -485 -36 -146 -13 -268 -24 -272 -24 -4 0 -17 -33 -28 -72 -59 -205 -136 -279 -294 -280 -135 -2 -249 40 -340 123 -64 58 -97 111 -122 194 -10 33 -24 66 -33 73 -10 8 -56 12 -148 12 l-133 0 0 -30 c0 -16 13 -258 30 -537 38 -661 50 -938 50 -1210 l0 -223 27 -7 c16 -4 332 -7 703 -8 564 0 749 4 1125 22 248 13 478 24 512 26 35 2 68 8 73 13 31 31 42 123 49 396 7 254 9 279 27 299 34 39 79 51 163 44 131 -12 276 34 301 95 14 35 7 113 -15 167 -22 52 -64 65 -238 71 -166 5 -191 15 -202 75 -3 18 1 156 10 307 8 151 18 332 22 403 l6 127 -229 -2 c-126 -1 -254 -3 -284 -5z m-828 -692 c118 -41 198 -113 259 -237 62 -123 62 -182 4 -220 -40 -26 -69 1 -121 114 -50 107 -89 155 -149 183 -73 34 -169 19 -220 -35 -17 -18 -44 -65 -60 -105 -16 -40 -38 -79 -49 -87 -29 -20 -73 -17 -97 7 -46 46 -1 194 86 288 54 58 114 90 188 101 83 12 101 11 159 -9z m-525 -598 c70 -33 112 -138 79 -201 -34 -66 -87 -78 -173 -38 -70 33 -87 61 -81 133 4 49 10 60 41 90 42 38 79 42 134 16z m987 -27 c37 -16 81 -67 91 -108 24 -97 -108 -193 -194 -142 -33 20 -71 85 -71 122 0 61 67 142 116 142 14 0 40 -6 58 -14z"></path></g></g><g id="l2DuetoN3FXakOcePiv8ukK" fill="rgb(123,193,68)" style="transform: none;"><g><path id="pZ7QSFB6g" d="M1640 5003 c-102 -52 -150 -148 -150 -299 0 -72 -3 -86 -23 -110 -23 -26 -25 -26 -302 -50 -389 -32 -641 -69 -681 -98 -13 -10 -23 -58 -44 -200 -20 -133 -33 -193 -44 -204 -13 -13 -44 -18 -144 -22 -139 -6 -170 -16 -216 -70 -38 -46 -41 -72 -16 -134 35 -87 58 -103 211 -141 58 -15 112 -34 123 -45 18 -18 19 -37 19 -357 0 -258 -5 -390 -20 -558 -11 -121 -19 -222 -17 -224 2 -2 144 5 316 14 257 14 380 16 688 9 292 -7 1438 -7 1447 0 2 2 33 946 33 1012 l0 50 -91 -4 c-112 -6 -182 9 -272 56 -126 65 -185 166 -175 297 9 108 71 190 183 242 56 26 70 28 218 31 l157 4 0 62 c0 35 -3 110 -6 168 l-7 106 -61 6 c-34 3 -212 11 -396 17 -280 9 -340 13 -364 27 -51 30 -66 60 -76 161 -15 138 -52 211 -130 251 -65 33 -99 34 -160 3z m-56 -1096 c110 -51 203 -171 214 -277 5 -57 -24 -100 -68 -100 -34 0 -50 20 -74 97 -24 74 -55 115 -106 141 -78 39 -187 23 -224 -33 -8 -12 -25 -64 -37 -115 -30 -131 -71 -168 -133 -119 -31 25 -34 69 -11 180 28 131 85 209 179 243 63 24 189 15 260 -17z m-487 -578 c43 -27 63 -66 63 -123 0 -67 -38 -107 -108 -114 -44 -4 -58 -1 -91 21 -78 52 -90 140 -26 204 28 28 40 33 80 33 31 0 60 -7 82 -21z m890 1 c39 -23 63 -67 63 -115 0 -110 -115 -163 -208 -95 -74 53 -79 147 -11 205 39 32 109 34 156 5z"></path></g></g><g id="l1jZqM7qiFed8eOq0ylTKTM" fill="rgb(242,103,50)" style="transform: none;"><g><path id="p10cOF08Il" d="M1590 1815 c0 -12 7 -15 33 -10 36 7 126 -21 192 -59 85 -50 171 -169 206 -284 8 -27 16 -39 22 -33 12 12 0 81 -13 81 -6 0 -10 9 -10 20 0 24 -31 90 -42 90 -4 0 -8 7 -8 15 0 8 -7 15 -15 15 -8 0 -15 8 -15 18 0 20 -49 72 -68 72 -7 0 -12 5 -12 10 0 6 -7 10 -15 10 -8 0 -15 4 -15 9 0 17 -113 54 -177 58 -53 3 -63 1 -63 -12z"></path><path id="pZ5GHXY70" d="M1473 1803 c-24 -8 -43 -19 -43 -24 0 -5 -7 -9 -15 -9 -8 0 -15 -9 -15 -20 0 -20 1 -20 43 4 23 13 61 30 84 37 43 12 49 30 10 28 -12 0 -41 -7 -64 -16z"></path><path id="p3N1AgCBU" d="M1573 1790 c-111 -16 -206 -92 -264 -213 -27 -55 -31 -53 -12 6 3 11 0 17 -10 17 -32 0 -59 -154 -35 -200 18 -34 74 -47 128 -31 23 7 40 18 40 26 0 8 4 15 8 15 10 0 62 130 62 155 0 34 -28 -4 -55 -76 -27 -69 -61 -106 -87 -96 -8 4 -7 6 4 6 27 1 54 37 77 100 12 32 31 70 42 85 21 27 88 66 111 66 7 0 -6 -9 -28 -19 -23 -10 -45 -24 -48 -30 -10 -16 34 -13 64 4 33 19 81 19 129 -1 22 -9 48 -14 58 -12 14 3 11 9 -17 26 -40 25 -33 29 10 7 40 -20 73 -66 115 -160 63 -137 89 -159 133 -112 30 32 28 77 -8 160 -58 136 -147 223 -274 267 -63 21 -64 21 -143 10z m-261 -390 c13 -5 17 -9 9 -9 -20 -1 -51 29 -50 48 0 10 4 8 9 -7 5 -12 20 -27 32 -32z"></path><path id="pQ7KeuvMJ" d="M1320 1675 c0 -8 -4 -15 -10 -15 -5 0 -10 -12 -10 -26 0 -31 15 -23 43 25 18 30 18 31 -2 31 -12 0 -21 -7 -21 -15z"></path><path id="pMJ89lkH1" d="M1780 1556 c0 -14 4 -26 8 -26 4 0 14 -16 21 -35 7 -19 17 -35 22 -35 5 0 9 -9 9 -20 0 -20 26 -79 39 -90 3 -3 11 -14 17 -25 14 -25 114 -36 114 -12 0 8 9 17 20 20 13 3 20 14 20 29 0 38 -11 40 -30 5 -9 -17 -29 -36 -43 -41 -38 -14 -61 11 -118 130 -54 112 -79 144 -79 100z"></path><path id="p3l0sqjG6" d="M1090 1220 c0 -5 -9 -10 -20 -10 -13 0 -20 -7 -20 -20 0 -13 -7 -20 -20 -20 -14 0 -22 -11 -31 -42 -11 -42 -6 -127 9 -137 4 -4 12 -15 18 -26 24 -45 204 -89 204 -50 0 8 -8 15 -17 15 -14 0 -12 5 8 17 58 35 73 97 40 161 -24 47 -48 68 -97 86 -21 8 -33 15 -26 15 49 3 135 -73 147 -131 4 -15 11 -26 16 -22 12 7 12 54 -1 54 -5 0 -10 8 -10 19 0 27 -39 71 -76 87 -38 16 -124 19 -124 4z m4 -39 c-38 -23 -64 -58 -64 -85 0 -11 -3 -17 -6 -13 -22 22 47 117 85 117 10 0 4 -7 -15 -19z m-43 -183 c11 -15 42 -36 72 -47 28 -11 45 -20 37 -20 -53 -1 -141 70 -139 113 1 20 2 20 6 1 3 -11 14 -32 24 -47z"></path><path id="pCaSlCII0" d="M2078 1193 c-10 -2 -18 -13 -18 -23 0 -18 2 -18 36 -4 20 8 38 13 41 10 3 -3 -6 -8 -21 -12 -30 -7 -84 -64 -90 -97 -3 -12 -7 -31 -9 -42 -3 -13 -5 -9 -6 10 0 17 8 47 19 68 l20 37 -20 0 c-13 0 -20 -7 -20 -20 0 -11 -4 -20 -9 -20 -15 0 -10 -122 5 -152 9 -16 23 -28 34 -28 13 0 20 -7 20 -19 0 -24 42 -35 103 -26 52 8 107 38 107 59 0 8 5 16 12 18 6 2 13 31 16 64 5 66 -16 124 -43 124 -8 0 -15 7 -15 15 0 10 -10 15 -27 15 l-28 -1 26 -22 c34 -28 69 -86 69 -112 -1 -12 -6 -4 -14 18 -17 47 -40 73 -86 98 -22 11 -28 18 -17 19 9 0 17 7 17 15 0 11 -11 15 -42 14 -24 -1 -51 -3 -60 -6z m178 -228 c-35 -53 -112 -81 -163 -60 -27 12 -73 69 -73 91 0 5 8 -4 19 -21 30 -49 58 -68 97 -67 48 2 93 30 113 69 9 17 18 27 19 22 2 -5 -3 -21 -12 -34z"></path><path id="pPIiznuYd" d="M1286 1016 c-3 -14 -18 -38 -32 -55 l-26 -31 26 0 c14 0 26 5 26 11 0 6 7 17 15 25 16 17 20 60 6 68 -5 3 -12 -5 -15 -18z"></path></g></g><g id="l4CB75RrZLJLSMryWv9SAXJ" fill="rgb(254,220,0)" style="transform: none;"><g><path id="pSMc9P0xT" d="M760 2339 c-118 -4 -261 -10 -317 -14 l-103 -7 0 -188 c0 -171 2 -189 18 -194 9 -2 49 -12 87 -22 131 -31 217 -86 260 -166 26 -47 29 -62 28 -138 -1 -107 -27 -180 -90 -250 -61 -68 -110 -92 -200 -98 l-73 -5 0 -361 c0 -198 3 -371 6 -383 3 -12 13 -25 22 -28 10 -4 264 -34 567 -66 385 -42 556 -64 572 -74 14 -10 28 -36 38 -73 24 -85 50 -137 97 -188 52 -57 85 -74 141 -74 89 0 139 61 157 190 6 41 13 83 16 93 14 43 51 47 470 47 l397 0 -6 363 c-6 377 -14 553 -47 1070 -11 170 -20 369 -20 443 l0 134 -902 -2 c-497 0 -1000 -5 -1118 -9z m955 -549 c83 -28 134 -61 188 -119 57 -61 118 -184 125 -249 3 -40 0 -51 -22 -74 -50 -54 -83 -30 -145 104 -62 134 -110 179 -203 193 -98 15 -180 -42 -223 -156 -29 -76 -53 -99 -101 -99 -49 0 -68 29 -61 94 16 156 146 294 299 316 80 11 81 11 143 -10z m-531 -594 c41 -17 94 -81 102 -123 8 -44 -1 -75 -32 -112 -21 -26 -33 -31 -67 -31 -94 1 -167 61 -167 137 0 80 44 130 123 142 4 0 22 -5 41 -13z m1021 -47 c45 -27 78 -90 69 -134 -12 -66 -70 -114 -138 -117 -47 -2 -79 22 -106 77 -26 54 -23 99 11 146 41 58 99 68 164 28z"></path></g></g><g id="l1SiTvrswKaN03aaqgPqjW8" fill="rgb(58,208,230)" style="transform: none;"><g><path id="pgAdAC7fZ" d="M4580 4564 c-242 -17 -835 -34 -1259 -35 l-353 -2 7 -178 c7 -168 6 -180 -14 -221 -34 -71 -62 -82 -238 -89 -139 -6 -155 -8 -196 -32 -60 -36 -94 -101 -78 -150 6 -19 21 -44 32 -56 47 -51 178 -83 274 -69 99 15 180 19 195 9 18 -12 16 -295 -5 -856 -8 -203 -12 -371 -9 -374 3 -3 75 -9 162 -13 86 -5 171 -11 188 -13 45 -8 71 -41 89 -120 19 -85 51 -142 106 -189 79 -67 204 -87 269 -43 50 33 69 74 90 193 11 59 23 111 27 115 5 5 94 11 198 13 105 3 269 15 365 26 96 11 292 25 435 30 375 15 646 29 678 36 15 4 32 15 38 27 7 12 13 177 18 459 5 385 4 441 -9 448 -8 4 -53 13 -100 20 -113 16 -188 51 -246 112 -64 69 -87 125 -82 202 10 166 151 312 319 331 32 4 61 10 63 14 8 12 -44 345 -54 351 -6 4 -84 12 -173 19 -89 6 -227 18 -307 26 -225 21 -244 22 -430 9z m-327 -775 c92 -30 181 -78 204 -108 22 -28 16 -89 -12 -116 -34 -35 -61 -31 -140 20 -71 47 -174 85 -230 85 -79 0 -153 -47 -190 -120 -40 -80 -95 -102 -149 -59 -51 40 -28 138 52 222 112 118 267 143 465 76z m294 -505 c36 -27 57 -81 48 -122 -9 -44 -60 -99 -110 -117 -42 -17 -46 -17 -77 2 -39 22 -78 93 -78 141 0 65 37 107 105 122 42 9 75 1 112 -26z m-749 -20 c37 -29 71 -93 72 -134 0 -69 -72 -119 -154 -106 -54 9 -85 30 -102 71 -19 47 -18 81 6 131 37 76 108 91 178 38z"></path></g></g></svg>